<?xml version="1.0"?>
<svg width="592" height="137" xmlns="http://www.w3.org/2000/svg" xmlns:svg="http://www.w3.org/2000/svg">
 <g class="layer">
  <title>Layer 1</title>
  <path d="m133.73,55.31l0,26.45c0,3.86 -1.81,7.45 -4.8,9.48c-2.51,1.7 -5.9,3.87 -9.9,6.13l0,-42.06l14.7,0z" fill="#FF4667" id="svg_3"/>
  <path d="m118.28,55.31l0,42.25c-10.77,6.13 -25.99,12.93 -40.43,12.93c-19.8,0 -41.05,-12.78 -50.34,-19.09c-2.99,-2.03 -4.8,-5.64 -4.8,-9.52l0,-26.57l95.57,0l0,0z" fill="#FF4667" id="svg_4"/>
  <path d="m133,54.75l0,25.84c0,3.79 -1.81,7.3 -4.8,9.29c-9.29,6.15 -30.54,18.62 -50.34,18.62c-19.79,0 -41.04,-12.47 -50.33,-18.62c-2.99,-1.99 -4.8,-5.5 -4.8,-9.29l0,-25.84l110.27,0zm3,-3l-3,0l-110.27,0l-3,0l0,3l0,25.84c0,4.83 2.3,9.24 6.15,11.79c4.89,3.24 12.62,7.94 21.68,11.87c11.08,4.82 21.27,7.26 30.3,7.26c9.03,0 19.23,-2.44 30.31,-7.26c9.06,-3.93 16.79,-8.63 21.68,-11.87c3.85,-2.55 6.15,-6.96 6.15,-11.79l0,-25.84l0,-3l0,0z" fill="#FF4667" id="svg_5"/>
  <path d="m116.89,103.69c-2.81,0.34 -5.39,1.69 -7.27,3.81c-1.88,2.12 -2.92,4.85 -2.92,7.69l0,10.21c0,4.15 2.21,7.98 5.79,10.05c3.59,2.07 8,2.07 11.59,0c3.58,-2.07 5.79,-5.9 5.79,-10.05l0,-10.21c0,-2.84 -1.04,-5.57 -2.92,-7.69c-1.88,-2.12 -4.47,-3.47 -7.28,-3.81" fill="#392C7D" id="svg_6"/>
  <path d="m127.09,116.55l-17.61,0l0,-1.24c0,-4.87 3.94,-8.81 8.8,-8.81c4.86,0 8.81,3.94 8.81,8.81l0,1.24l0,0z" fill="white" id="svg_7"/>
  <path d="m118.28,58.54l0,59.96" id="svg_8" stroke="#392C7D" stroke-linecap="round" stroke-miterlimit="10" stroke-width="3"/>
  <path d="m147.91,51.33l-66.68,31.78c-2.24,1.07 -4.85,1.06 -7.1,-0.01l-67.04,-32.12c-6.22,-2.98 -6.25,-11.83 -0.06,-14.85l67.01,-32.73c2.3,-1.12 4.98,-1.11 7.27,0.02l66.72,33.07c6.16,3.06 6.09,11.88 -0.12,14.84z" fill="#392C7D" id="svg_9" transform="matrix(1 0 0 1 0 0)"/>
  <path d="m77.65,3.95c0.92,0 1.84,0.21 2.69,0.62l68.3,33.25c4.52,2.2 4.47,8.56 -0.09,10.69l-68.27,31.96c-0.82,0.39 -1.71,0.58 -2.6,0.58c-0.89,0 -1.78,-0.19 -2.61,-0.58l-68.63,-32.3c-4.57,-2.15 -4.59,-8.53 -0.04,-10.71l68.6,-32.91c0.84,-0.4 1.75,-0.6 2.65,-0.6zm0,-2.95c-1.36,0 -2.73,0.31 -3.96,0.9l-68.61,32.91c-3.15,1.51 -5.09,4.59 -5.08,8.03c0.01,3.44 1.98,6.5 5.14,7.99l68.64,32.3c1.21,0.57 2.56,0.87 3.9,0.87c1.34,0 2.68,-0.3 3.89,-0.86l68.27,-31.96c3.16,-1.48 5.13,-4.53 5.16,-7.96c0.03,-3.44 -1.9,-6.52 -5.03,-8.04l-68.3,-33.26c-1.24,-0.6 -2.63,-0.92 -4.02,-0.92z" fill="#392C7D" id="svg_10"/>
  <text fill="#ff4667" font-family="Fantasy" font-size="77" id="svg_12" letter-spacing="7" stroke-width="0" text-anchor="middle" x="407.2" xml:space="preserve" y="100.3">Zelo</text>
  <text fill="#392c7d" font-family="Fantasy" font-size="77" id="svg_13" stroke-width="0" text-anchor="middle" x="247.2" xml:space="preserve" y="100.3">Cour</text>
 </g>
</svg>